# xmcd
#
# Track frame offsets:
#	150
#	12562
#	28599
#	45244
#	63078
#	75870
#	91885
#	105859
#	120046
#	135488
#	149328
#	164980
#
# Disc length: 2381 seconds
#
# Revision: 1
# Processed by: cddbd v1.5.1PL2 Copyright (c) Steve Scherf et al.
# Submitted via: EasyCDDAExtractor 8.2.3.1
#
DISCID=85094b0c
DTITLE=Jacó e Jacózinho - Popularidade
DYEAR=1988
DGENRE=Sertanejo
TTITLE0=Preto e branco
TTITLE1=Caboclinha
TTITLE2=Ladrão de Terra
TTITLE3=Os filhos da Bahia
TTITLE4=Disco voador
TTITLE5=Violinha Barulhenta
TTITLE6=Terra Bruta
TTITLE7=Menina moça
TTITLE8=É fogo
TTITLE9=Empreitada perigosa
TTITLE10=Minha mãe é uma santa
TTITLE11=Ninho de cobra
EXTD=
EXTT0=
EXTT1=
EXTT2=
EXTT3=
EXTT4=
EXTT5=
EXTT6=
EXTT7=
EXTT8=
EXTT9=
EXTT10=
EXTT11=
PLAYORDER=
